<?xml version="1.0" encoding="utf-8"?>
<!-- Generator: Adobe Illustrator 16.0.0, SVG Export Plug-In . SVG Version: 6.00 Build 0)  -->
<!DOCTYPE svg PUBLIC "-//W3C//DTD SVG 1.1//EN" "http://www.w3.org/Graphics/SVG/1.1/DTD/svg11.dtd">
<svg version="1.1" xmlns="http://www.w3.org/2000/svg" xmlns:xlink="http://www.w3.org/1999/xlink" x="0px" y="0px"
	 width="87.897px" height="27.567px" viewBox="0 0 87.897 27.567" enable-background="new 0 0 87.897 27.567" xml:space="preserve">
<g id="Layer_3">
</g>
<g id="PATRON_1">
</g>
<g id="CHOCOLATE_TXT">
</g>
<g id="COCO_TXT">
</g>
<g id="ALMENDRA_100_TXT">
</g>
<g id="GRAFICOS_BLANCO">
	<g>
		<polyline points="0,5.649 4.399,4.94 4.399,9.256 6.484,4.607 10.956,3.95 7.683,12.571 11.3,20.182 6.651,20.91 4.462,15.762 
			4.462,21.349 0,22.276 0,5.649 		"/>
		<path d="M12.925,3.621l4.502-0.713v11.756c0,0,0.021,0.713,0.701,0.624c0.679-0.089,0.836-0.155,0.836-0.155
			s0.791-0.09,0.791-0.77s0-11.811,0-11.811l4.436-0.714v19.455c0,0-0.303,2.083-2.219,2.407C20.056,24.023,0,27.567,0,27.567
			v-3.565l18.797-3.387c0,0,0.669-0.078,0.669-0.592c0-0.512,0-0.857,0-0.857s0.021-0.346-0.491-0.346s-3.733,0.77-3.733,0.77
			s-0.936,0.088-1.136,0.011c-0.2-0.078-1.171-0.68-1.171-1.739C12.935,16.804,12.925,3.621,12.925,3.621z"/>
		<path d="M34.003,1.264l-0.016,16.343l4.873-0.387V5.69c0,0,0.104-1.099,1.113-1.099c1.012,0,1.072,1.055,1.072,1.055v11.499h4.679
			V5.766c0,0,0.088-1.234,1.144-1.234c1.054,0,1.1,1.159,1.1,1.159v14.872c0,0,0.192,1.946,2.094,2.064
			c1.901,0.119,8.603,0.075,16.343,1.086v-3.447c0,0-8.126-0.848-13.713-1.01V3.254c0,0-0.652-2.615-3-2.615
			c-2.347,0-3.001,1.397-3.775,1.397c-0.771,0-1.513-1.604-3.475-1.604s-3.18,1.783-3.18,1.783V1.025L34.003,1.264z"/>
		<path d="M54.861,5.632V2.794c0,0,0.159-1.235,1.486-1.396c1.352-0.164,6.12-0.104,7.354,0.179c0,0,2.481,0.505,2.703,2.867v14.084
			c0,0-5.272-0.565-8.975-0.743c0,0-2.657-0.029-2.657-1.917c0-1.887,0-6.432,0-6.432s0.132-1.309,1.322-1.309
			c1.188,0,4.829,0.06,4.829,0.06s0.892,0.034,0.892-0.534c0-0.742,0-1.088,0-1.088s-0.144-1.416-1.169-1.416
			c-1.023,0-1.158,0.758-1.225,0.858c-0.065,0.1-4.22,0.026-4.22,0.026S54.861,5.98,54.861,5.632z M59.634,11.968v1.46
			c0,0,0.116,0.836,0.955,0.836c0.838,0,1.074-0.68,1.074-0.814c0-0.133,0-1.481,0-1.481s-0.079-0.88-1.017-0.88
			C59.713,11.088,59.634,11.968,59.634,11.968z"/>
		<path d="M68.426,2.864v16.123l4.915,0.792V8.714c0,0,0.154-1.448,1.157-1.448s1.093,1.281,1.093,1.416c0,0.133,0,14.418,0,14.418
			s0,1.916,2.062,2.585c0,0,4.124,0.96,8.856,1.292v-2.886l-5.737-0.869c0,0-0.601-0.134-0.601-0.534c0-0.402,0-14.754,0-14.754
			s0.244-4.456-3.834-4.456c-1.626,0-2.384,1.426-2.384,1.426l-0.201-0.714c0,0-0.211-0.516-0.604-0.602
			C72.826,3.519,68.426,2.864,68.426,2.864z"/>
		<path d="M81.909,21.484c0,0,2.14,0.801,4.48,0.914c0,0,0.222-11.939,0.266-13.514c0.046-1.575,0.313-3.135,0.313-3.135
			s-2.854-0.164-5.06-0.684V21.484z"/>
		<path d="M83.817,2.407l2.572-2.288c0,0,0.474-0.267,0.845,0c0.372,0.268,0.551,0.432,0.551,0.432s0.252,0.207,0,0.594
			s-1.473,1.977-1.473,1.977s-0.445,0.564-1.113,0.564S83.817,3.18,83.817,3.18S83.334,2.84,83.817,2.407z"/>
		<rect x="26.307" y="8.098" width="5.541" height="3.432"/>
	</g>
</g>
<g id="TEXTO">
</g>
<g id="GUIAS">
</g>
</svg>
